<mxfile host="app.diagrams.net" modified="2024-05-24T12:59:17.204Z" agent="Mozilla/5.0 (Windows NT 10.0; Win64; x64) AppleWebKit/537.36 (KHTML, like Gecko) Chrome/125.0.0.0 Safari/537.36" etag="ORTTVP7lLoSjKQnwjaLv" version="24.4.8" type="device">
  <diagram name="페이지-1" id="i83iV2_AebKQE_UNfp0H">
    <mxGraphModel dx="-282" dy="775" grid="1" gridSize="10" guides="1" tooltips="1" connect="1" arrows="1" fold="1" page="1" pageScale="1" pageWidth="827" pageHeight="1169" math="0" shadow="0">
      <root>
        <mxCell id="0" />
        <mxCell id="1" parent="0" />
        <mxCell id="VnZN955LMP-njsd2s_tE-10" style="rounded=0;orthogonalLoop=1;jettySize=auto;html=1;exitX=1;exitY=1;exitDx=0;exitDy=0;exitPerimeter=0;entryX=0;entryY=0.5;entryDx=0;entryDy=0;endArrow=none;endFill=0;" parent="1" source="VnZN955LMP-njsd2s_tE-1" target="VnZN955LMP-njsd2s_tE-6" edge="1">
          <mxGeometry relative="1" as="geometry" />
        </mxCell>
        <mxCell id="VnZN955LMP-njsd2s_tE-1" value="User" style="shape=umlActor;verticalLabelPosition=bottom;verticalAlign=top;html=1;outlineConnect=0;" parent="1" vertex="1">
          <mxGeometry x="910" y="270" width="30" height="60" as="geometry" />
        </mxCell>
        <mxCell id="VnZN955LMP-njsd2s_tE-5" style="edgeStyle=orthogonalEdgeStyle;rounded=0;orthogonalLoop=1;jettySize=auto;html=1;exitX=0;exitY=0.5;exitDx=0;exitDy=0;endArrow=none;endFill=0;" parent="1" source="VnZN955LMP-njsd2s_tE-4" target="VnZN955LMP-njsd2s_tE-1" edge="1">
          <mxGeometry relative="1" as="geometry" />
        </mxCell>
        <mxCell id="VnZN955LMP-njsd2s_tE-9" style="edgeStyle=orthogonalEdgeStyle;rounded=0;orthogonalLoop=1;jettySize=auto;html=1;exitX=0.5;exitY=1;exitDx=0;exitDy=0;entryX=0.5;entryY=0;entryDx=0;entryDy=0;endArrow=none;endFill=0;" parent="1" source="VnZN955LMP-njsd2s_tE-4" target="VnZN955LMP-njsd2s_tE-6" edge="1">
          <mxGeometry relative="1" as="geometry" />
        </mxCell>
        <mxCell id="VnZN955LMP-njsd2s_tE-4" value=":main_menu" style="rounded=0;whiteSpace=wrap;html=1;" parent="1" vertex="1">
          <mxGeometry x="1070" y="270" width="120" height="60" as="geometry" />
        </mxCell>
        <mxCell id="VnZN955LMP-njsd2s_tE-12" style="rounded=0;orthogonalLoop=1;jettySize=auto;html=1;entryX=0;entryY=0.5;entryDx=0;entryDy=0;endArrow=none;endFill=0;exitX=1;exitY=0.5;exitDx=0;exitDy=0;" parent="1" source="VnZN955LMP-njsd2s_tE-6" target="VnZN955LMP-njsd2s_tE-11" edge="1">
          <mxGeometry relative="1" as="geometry" />
        </mxCell>
        <mxCell id="VnZN955LMP-njsd2s_tE-6" value=":trash_menu" style="rounded=0;whiteSpace=wrap;html=1;" parent="1" vertex="1">
          <mxGeometry x="1070" y="430" width="120" height="60" as="geometry" />
        </mxCell>
        <mxCell id="VnZN955LMP-njsd2s_tE-15" style="rounded=0;orthogonalLoop=1;jettySize=auto;html=1;exitX=1;exitY=0.5;exitDx=0;exitDy=0;entryX=0;entryY=0.5;entryDx=0;entryDy=0;endArrow=none;endFill=0;" parent="1" source="VnZN955LMP-njsd2s_tE-11" target="VnZN955LMP-njsd2s_tE-14" edge="1">
          <mxGeometry relative="1" as="geometry" />
        </mxCell>
        <mxCell id="VnZN955LMP-njsd2s_tE-11" value=":TrashController" style="rounded=0;whiteSpace=wrap;html=1;" parent="1" vertex="1">
          <mxGeometry x="1320" y="430" width="120" height="60" as="geometry" />
        </mxCell>
        <mxCell id="VnZN955LMP-njsd2s_tE-14" value=":DeletedEmailsService" style="rounded=0;whiteSpace=wrap;html=1;" parent="1" vertex="1">
          <mxGeometry x="1540" y="490" width="136" height="60" as="geometry" />
        </mxCell>
        <mxCell id="VnZN955LMP-njsd2s_tE-17" value="" style="endArrow=classic;html=1;rounded=0;" parent="1" edge="1">
          <mxGeometry width="50" height="50" relative="1" as="geometry">
            <mxPoint x="950" y="290" as="sourcePoint" />
            <mxPoint x="1060" y="290" as="targetPoint" />
          </mxGeometry>
        </mxCell>
        <mxCell id="VnZN955LMP-njsd2s_tE-18" value="1: trash()" style="text;html=1;align=center;verticalAlign=middle;whiteSpace=wrap;rounded=0;" parent="1" vertex="1">
          <mxGeometry x="960" y="264" width="80" height="30" as="geometry" />
        </mxCell>
        <mxCell id="VnZN955LMP-njsd2s_tE-19" value="2: &amp;lt;&amp;lt;navigate&amp;gt;&amp;gt;" style="text;html=1;align=center;verticalAlign=middle;whiteSpace=wrap;rounded=0;" parent="1" vertex="1">
          <mxGeometry x="1136" y="365" width="116" height="30" as="geometry" />
        </mxCell>
        <mxCell id="VnZN955LMP-njsd2s_tE-20" value="" style="endArrow=classic;html=1;rounded=0;" parent="1" edge="1">
          <mxGeometry width="50" height="50" relative="1" as="geometry">
            <mxPoint x="1140" y="340" as="sourcePoint" />
            <mxPoint x="1140" y="420" as="targetPoint" />
          </mxGeometry>
        </mxCell>
        <mxCell id="VnZN955LMP-njsd2s_tE-21" value="" style="endArrow=classic;html=1;rounded=0;" parent="1" edge="1">
          <mxGeometry width="50" height="50" relative="1" as="geometry">
            <mxPoint x="970" y="340" as="sourcePoint" />
            <mxPoint x="1050" y="420" as="targetPoint" />
          </mxGeometry>
        </mxCell>
        <mxCell id="VnZN955LMP-njsd2s_tE-23" value="" style="endArrow=classic;html=1;rounded=0;" parent="1" edge="1">
          <mxGeometry width="50" height="50" relative="1" as="geometry">
            <mxPoint x="1210" y="450" as="sourcePoint" />
            <mxPoint x="1310" y="450" as="targetPoint" />
          </mxGeometry>
        </mxCell>
        <mxCell id="VnZN955LMP-njsd2s_tE-24" value="3.1: restoreMailDo(msgId)" style="text;html=1;align=center;verticalAlign=middle;whiteSpace=wrap;rounded=0;" parent="1" vertex="1">
          <mxGeometry x="1180.5" y="410" width="150" height="30" as="geometry" />
        </mxCell>
        <mxCell id="VnZN955LMP-njsd2s_tE-25" value="3: &amp;lt;&amp;lt;submit&amp;gt;&amp;gt;trashMsg(msgid)" style="text;html=1;align=center;verticalAlign=middle;whiteSpace=wrap;rounded=0;" parent="1" vertex="1">
          <mxGeometry x="960" y="320" width="170" height="30" as="geometry" />
        </mxCell>
        <mxCell id="VnZN955LMP-njsd2s_tE-28" value="" style="endArrow=classic;html=1;rounded=0;" parent="1" edge="1">
          <mxGeometry width="50" height="50" relative="1" as="geometry">
            <mxPoint x="1460" y="460" as="sourcePoint" />
            <mxPoint x="1530" y="500" as="targetPoint" />
          </mxGeometry>
        </mxCell>
        <mxCell id="VnZN955LMP-njsd2s_tE-29" value="3.1.1:&amp;nbsp;deleteDeletedEmail(username, msgId)" style="text;html=1;align=center;verticalAlign=middle;whiteSpace=wrap;rounded=0;" parent="1" vertex="1">
          <mxGeometry x="1550" y="450" width="60" height="30" as="geometry" />
        </mxCell>
        <mxCell id="VnZN955LMP-njsd2s_tE-31" value="" style="endArrow=classic;html=1;rounded=0;" parent="1" edge="1">
          <mxGeometry width="50" height="50" relative="1" as="geometry">
            <mxPoint x="1305.5" y="470" as="sourcePoint" />
            <mxPoint x="1205.5" y="470" as="targetPoint" />
          </mxGeometry>
        </mxCell>
        <mxCell id="VnZN955LMP-njsd2s_tE-32" value="3.2: &amp;lt;&amp;lt;redrect&amp;gt;&amp;gt;" style="text;html=1;align=center;verticalAlign=middle;whiteSpace=wrap;rounded=0;" parent="1" vertex="1">
          <mxGeometry x="1201" y="470" width="109" height="30" as="geometry" />
        </mxCell>
      </root>
    </mxGraphModel>
  </diagram>
</mxfile>
